<svg width="22" height="22" viewBox="0 0 22 22" fill="none" xmlns="http://www.w3.org/2000/svg">
<path d="M21.506 18.6129L16.244 13.3505C17.0643 12.0039 17.497 10.4571 17.4944 8.88035C17.4944 4.12197 13.3715 1.12604e-07 8.61354 1.12604e-07C7.48235 -0.000182814 6.36219 0.22251 5.31707 0.655357C4.27194 1.08821 3.32232 1.72273 2.52244 2.52268C1.72256 3.32264 1.0881 4.27235 0.655295 5.31758C0.222488 6.3628 -0.000182796 7.48306 1.12593e-07 8.61437C1.12593e-07 13.3713 4.12297 17.4947 8.8795 17.4947C10.4041 17.4961 11.9015 17.0903 13.2169 16.3194L18.5067 21.6125C18.7555 21.8607 19.0925 22 19.4438 22C19.7952 22 20.1322 21.8607 20.3809 21.6125L21.694 20.2993C22.2106 19.7827 22.0226 19.1296 21.506 18.6129ZM2.65118 8.61437C2.651 7.83119 2.80508 7.05564 3.10464 6.33202C3.40419 5.60841 3.84335 4.95089 4.39702 4.39704C4.9507 3.84318 5.60805 3.40383 6.33152 3.10407C7.055 2.80432 7.83044 2.65004 8.61354 2.65004C11.908 2.65004 14.8433 5.58416 14.8433 8.88035C14.8429 10.4621 14.2144 11.9789 13.0961 13.0974C11.9778 14.2158 10.4611 14.8443 8.8795 14.8447C5.58502 14.8433 2.65118 11.9078 2.65118 8.61437Z" fill="#E5E5E5"/>
</svg>
