<?xml version="1.0" encoding="UTF-8" standalone="no"?>
<!DOCTYPE svg PUBLIC "-//W3C//DTD SVG 1.1//EN"
 "http://www.w3.org/Graphics/SVG/1.1/DTD/svg11.dtd">
<!-- Generated by graphviz version 2.47.3 (20210619.1520)
 -->
<!-- Title: dependencies Pages: 1 -->
<svg width="2398pt" height="247pt"
 viewBox="0.00 0.00 2398.00 246.80" xmlns="http://www.w3.org/2000/svg" xmlns:xlink="http://www.w3.org/1999/xlink">
<g id="graph0" class="graph" transform="scale(1 1) rotate(0) translate(4 242.8)">
<title>dependencies</title>
<polygon fill="white" stroke="transparent" points="-4,4 -4,-242.8 2394,-242.8 2394,4 -4,4"/>
<text text-anchor="middle" x="1195" y="-8.2" font-family="sans-serif" font-size="14.00">dependencies</text>
<g id="clust1" class="cluster">
<title>cluster_AppModule</title>
<polygon fill="none" stroke="black" stroke-dasharray="1,5" points="8,-32.8 8,-230.8 2382,-230.8 2382,-32.8 8,-32.8"/>
</g>
<g id="clust17" class="cluster">
<title>cluster_AppModule_imports</title>
<polygon fill="none" stroke="black" points="2230,-40.8 2230,-92.8 2374,-92.8 2374,-40.8 2230,-40.8"/>
</g>
<g id="clust19" class="cluster">
<title>cluster_AppModule_bootstrap</title>
<polygon fill="none" stroke="black" points="1226,-170.8 1226,-222.8 1350,-222.8 1350,-170.8 1226,-170.8"/>
</g>
<g id="clust2" class="cluster">
<title>cluster_AppModule_declarations</title>
<polygon fill="none" stroke="black" points="16,-40.8 16,-92.8 2222,-92.8 2222,-40.8 16,-40.8"/>
</g>
<!-- AppComponent -->
<g id="node1" class="node">
<title>AppComponent</title>
<polygon fill="#ffffb3" stroke="black" points="2213.94,-84.8 2108.06,-84.8 2108.06,-48.8 2213.94,-48.8 2213.94,-84.8"/>
<text text-anchor="middle" x="2161" y="-62.6" font-family="Times,serif" font-size="14.00">AppComponent</text>
</g>
<!-- AppModule -->
<g id="node15" class="node">
<title>AppModule</title>
<polygon fill="#8dd3c7" stroke="black" points="1329.66,-149.8 1326.66,-153.8 1305.66,-153.8 1302.66,-149.8 1246.34,-149.8 1246.34,-113.8 1329.66,-113.8 1329.66,-149.8"/>
<text text-anchor="middle" x="1288" y="-127.6" font-family="Times,serif" font-size="14.00">AppModule</text>
</g>
<!-- AppComponent&#45;&gt;AppModule -->
<g id="edge1" class="edge">
<title>AppComponent&#45;&gt;AppModule</title>
<path fill="none" stroke="black" d="M2161,-85.09C2161,-107.01 2161,-140.8 2161,-140.8 2161,-140.8 1339.81,-140.8 1339.81,-140.8"/>
<polygon fill="black" stroke="black" points="1339.81,-137.3 1329.81,-140.8 1339.81,-144.3 1339.81,-137.3"/>
</g>
<!-- EditProfileComponent -->
<g id="node2" class="node">
<title>EditProfileComponent</title>
<polygon fill="#ffffb3" stroke="black" points="2090.27,-84.8 1947.73,-84.8 1947.73,-48.8 2090.27,-48.8 2090.27,-84.8"/>
<text text-anchor="middle" x="2019" y="-62.6" font-family="Times,serif" font-size="14.00">EditProfileComponent</text>
</g>
<!-- EditProfileComponent&#45;&gt;AppModule -->
<g id="edge2" class="edge">
<title>EditProfileComponent&#45;&gt;AppModule</title>
<path fill="none" stroke="black" d="M2019,-84.83C2019,-105.57 2019,-136.8 2019,-136.8 2019,-136.8 1339.66,-136.8 1339.66,-136.8"/>
<polygon fill="black" stroke="black" points="1339.66,-133.3 1329.66,-136.8 1339.66,-140.3 1339.66,-133.3"/>
</g>
<!-- FooterComponent -->
<g id="node3" class="node">
<title>FooterComponent</title>
<polygon fill="#ffffb3" stroke="black" points="1929.88,-84.8 1812.12,-84.8 1812.12,-48.8 1929.88,-48.8 1929.88,-84.8"/>
<text text-anchor="middle" x="1871" y="-62.6" font-family="Times,serif" font-size="14.00">FooterComponent</text>
</g>
<!-- FooterComponent&#45;&gt;AppModule -->
<g id="edge3" class="edge">
<title>FooterComponent&#45;&gt;AppModule</title>
<path fill="none" stroke="black" d="M1871,-84.91C1871,-104.14 1871,-131.8 1871,-131.8 1871,-131.8 1339.93,-131.8 1339.93,-131.8"/>
<polygon fill="black" stroke="black" points="1339.93,-128.3 1329.93,-131.8 1339.93,-135.3 1339.93,-128.3"/>
</g>
<!-- HomeComponent -->
<g id="node4" class="node">
<title>HomeComponent</title>
<polygon fill="#ffffb3" stroke="black" points="1793.55,-84.8 1678.45,-84.8 1678.45,-48.8 1793.55,-48.8 1793.55,-84.8"/>
<text text-anchor="middle" x="1736" y="-62.6" font-family="Times,serif" font-size="14.00">HomeComponent</text>
</g>
<!-- HomeComponent&#45;&gt;AppModule -->
<g id="edge4" class="edge">
<title>HomeComponent&#45;&gt;AppModule</title>
<path fill="none" stroke="black" d="M1736,-85.1C1736,-103.07 1736,-127.8 1736,-127.8 1736,-127.8 1339.74,-127.8 1339.74,-127.8"/>
<polygon fill="black" stroke="black" points="1339.74,-124.3 1329.74,-127.8 1339.74,-131.3 1339.74,-124.3"/>
</g>
<!-- LoginComponent -->
<g id="node5" class="node">
<title>LoginComponent</title>
<polygon fill="#ffffb3" stroke="black" points="1660.28,-84.8 1545.72,-84.8 1545.72,-48.8 1660.28,-48.8 1660.28,-84.8"/>
<text text-anchor="middle" x="1603" y="-62.6" font-family="Times,serif" font-size="14.00">LoginComponent</text>
</g>
<!-- LoginComponent&#45;&gt;AppModule -->
<g id="edge5" class="edge">
<title>LoginComponent&#45;&gt;AppModule</title>
<path fill="none" stroke="black" d="M1603,-84.83C1603,-101.2 1603,-122.8 1603,-122.8 1603,-122.8 1339.83,-122.8 1339.83,-122.8"/>
<polygon fill="black" stroke="black" points="1339.83,-119.3 1329.83,-122.8 1339.83,-126.3 1339.83,-119.3"/>
</g>
<!-- MyDomainsComponent -->
<g id="node6" class="node">
<title>MyDomainsComponent</title>
<polygon fill="#ffffb3" stroke="black" points="1527.82,-84.8 1376.18,-84.8 1376.18,-48.8 1527.82,-48.8 1527.82,-84.8"/>
<text text-anchor="middle" x="1452" y="-62.6" font-family="Times,serif" font-size="14.00">MyDomainsComponent</text>
</g>
<!-- MyDomainsComponent&#45;&gt;AppModule -->
<g id="edge6" class="edge">
<title>MyDomainsComponent&#45;&gt;AppModule</title>
<path fill="none" stroke="black" d="M1452,-84.99C1452,-99.98 1452,-118.8 1452,-118.8 1452,-118.8 1339.81,-118.8 1339.81,-118.8"/>
<polygon fill="black" stroke="black" points="1339.81,-115.3 1329.81,-118.8 1339.81,-122.3 1339.81,-115.3"/>
</g>
<!-- MyPatentsComponent -->
<g id="node7" class="node">
<title>MyPatentsComponent</title>
<polygon fill="#ffffb3" stroke="black" points="1358.71,-84.8 1217.29,-84.8 1217.29,-48.8 1358.71,-48.8 1358.71,-84.8"/>
<text text-anchor="middle" x="1288" y="-62.6" font-family="Times,serif" font-size="14.00">MyPatentsComponent</text>
</g>
<!-- MyPatentsComponent&#45;&gt;AppModule -->
<g id="edge7" class="edge">
<title>MyPatentsComponent&#45;&gt;AppModule</title>
<path fill="none" stroke="black" d="M1288,-84.91C1288,-84.91 1288,-103.79 1288,-103.79"/>
<polygon fill="black" stroke="black" points="1284.5,-103.79 1288,-113.79 1291.5,-103.79 1284.5,-103.79"/>
</g>
<!-- NavbarComponent -->
<g id="node8" class="node">
<title>NavbarComponent</title>
<polygon fill="#ffffb3" stroke="black" points="1199.03,-84.8 1076.97,-84.8 1076.97,-48.8 1199.03,-48.8 1199.03,-84.8"/>
<text text-anchor="middle" x="1138" y="-62.6" font-family="Times,serif" font-size="14.00">NavbarComponent</text>
</g>
<!-- NavbarComponent&#45;&gt;AppModule -->
<g id="edge8" class="edge">
<title>NavbarComponent&#45;&gt;AppModule</title>
<path fill="none" stroke="black" d="M1138,-84.99C1138,-99.98 1138,-118.8 1138,-118.8 1138,-118.8 1236.22,-118.8 1236.22,-118.8"/>
<polygon fill="black" stroke="black" points="1236.22,-122.3 1246.22,-118.8 1236.22,-115.3 1236.22,-122.3"/>
</g>
<!-- PatentBoxComponent -->
<g id="node9" class="node">
<title>PatentBoxComponent</title>
<polygon fill="#ffffb3" stroke="black" points="1058.66,-84.8 919.34,-84.8 919.34,-48.8 1058.66,-48.8 1058.66,-84.8"/>
<text text-anchor="middle" x="989" y="-62.6" font-family="Times,serif" font-size="14.00">PatentBoxComponent</text>
</g>
<!-- PatentBoxComponent&#45;&gt;AppModule -->
<g id="edge9" class="edge">
<title>PatentBoxComponent&#45;&gt;AppModule</title>
<path fill="none" stroke="black" d="M989,-84.83C989,-101.2 989,-122.8 989,-122.8 989,-122.8 1236.11,-122.8 1236.11,-122.8"/>
<polygon fill="black" stroke="black" points="1236.11,-126.3 1246.11,-122.8 1236.11,-119.3 1236.11,-126.3"/>
</g>
<!-- PatentResultsPageComponent -->
<g id="node10" class="node">
<title>PatentResultsPageComponent</title>
<polygon fill="#ffffb3" stroke="black" points="901.26,-84.8 716.74,-84.8 716.74,-48.8 901.26,-48.8 901.26,-84.8"/>
<text text-anchor="middle" x="809" y="-62.6" font-family="Times,serif" font-size="14.00">PatentResultsPageComponent</text>
</g>
<!-- PatentResultsPageComponent&#45;&gt;AppModule -->
<g id="edge10" class="edge">
<title>PatentResultsPageComponent&#45;&gt;AppModule</title>
<path fill="none" stroke="black" d="M809,-85.1C809,-103.07 809,-127.8 809,-127.8 809,-127.8 1236.33,-127.8 1236.33,-127.8"/>
<polygon fill="black" stroke="black" points="1236.33,-131.3 1246.33,-127.8 1236.33,-124.3 1236.33,-131.3"/>
</g>
<!-- PatentSearchFormComponent -->
<g id="node11" class="node">
<title>PatentSearchFormComponent</title>
<polygon fill="#ffffb3" stroke="black" points="698.25,-84.8 513.75,-84.8 513.75,-48.8 698.25,-48.8 698.25,-84.8"/>
<text text-anchor="middle" x="606" y="-62.6" font-family="Times,serif" font-size="14.00">PatentSearchFormComponent</text>
</g>
<!-- PatentSearchFormComponent&#45;&gt;AppModule -->
<g id="edge11" class="edge">
<title>PatentSearchFormComponent&#45;&gt;AppModule</title>
<path fill="none" stroke="black" d="M606,-84.91C606,-104.14 606,-131.8 606,-131.8 606,-131.8 1236.11,-131.8 1236.11,-131.8"/>
<polygon fill="black" stroke="black" points="1236.11,-135.3 1246.11,-131.8 1236.11,-128.3 1236.11,-135.3"/>
</g>
<!-- ProfileNavbarComponent -->
<g id="node12" class="node">
<title>ProfileNavbarComponent</title>
<polygon fill="#ffffb3" stroke="black" points="495.13,-84.8 334.87,-84.8 334.87,-48.8 495.13,-48.8 495.13,-84.8"/>
<text text-anchor="middle" x="415" y="-62.6" font-family="Times,serif" font-size="14.00">ProfileNavbarComponent</text>
</g>
<!-- ProfileNavbarComponent&#45;&gt;AppModule -->
<g id="edge12" class="edge">
<title>ProfileNavbarComponent&#45;&gt;AppModule</title>
<path fill="none" stroke="black" d="M415,-84.83C415,-105.57 415,-136.8 415,-136.8 415,-136.8 1236.19,-136.8 1236.19,-136.8"/>
<polygon fill="black" stroke="black" points="1236.19,-140.3 1246.19,-136.8 1236.19,-133.3 1236.19,-140.3"/>
</g>
<!-- ProfilesComponent -->
<g id="node13" class="node">
<title>ProfilesComponent</title>
<polygon fill="#ffffb3" stroke="black" points="316.38,-84.8 191.62,-84.8 191.62,-48.8 316.38,-48.8 316.38,-84.8"/>
<text text-anchor="middle" x="254" y="-62.6" font-family="Times,serif" font-size="14.00">ProfilesComponent</text>
</g>
<!-- ProfilesComponent&#45;&gt;AppModule -->
<g id="edge13" class="edge">
<title>ProfilesComponent&#45;&gt;AppModule</title>
<path fill="none" stroke="black" d="M254,-85.09C254,-107.01 254,-140.8 254,-140.8 254,-140.8 1236.19,-140.8 1236.19,-140.8"/>
<polygon fill="black" stroke="black" points="1236.19,-144.3 1246.19,-140.8 1236.19,-137.3 1236.19,-144.3"/>
</g>
<!-- RegistrationComponent -->
<g id="node14" class="node">
<title>RegistrationComponent</title>
<polygon fill="#ffffb3" stroke="black" points="173.77,-84.8 24.23,-84.8 24.23,-48.8 173.77,-48.8 173.77,-84.8"/>
<text text-anchor="middle" x="99" y="-62.6" font-family="Times,serif" font-size="14.00">RegistrationComponent</text>
</g>
<!-- RegistrationComponent&#45;&gt;AppModule -->
<g id="edge14" class="edge">
<title>RegistrationComponent&#45;&gt;AppModule</title>
<path fill="none" stroke="black" d="M99,-85.12C99,-108.46 99,-145.8 99,-145.8 99,-145.8 1236.03,-145.8 1236.03,-145.8"/>
<polygon fill="black" stroke="black" points="1236.03,-149.3 1246.03,-145.8 1236.03,-142.3 1236.03,-149.3"/>
</g>
<!-- AppComponent  -->
<g id="node17" class="node">
<title>AppComponent </title>
<polygon fill="#80b1d3" stroke="black" points="1342.44,-214.8 1233.56,-214.8 1233.56,-178.8 1342.44,-178.8 1342.44,-214.8"/>
<text text-anchor="middle" x="1288" y="-192.6" font-family="Times,serif" font-size="14.00">AppComponent </text>
</g>
<!-- AppModule&#45;&gt;AppComponent  -->
<g id="edge16" class="edge">
<title>AppModule&#45;&gt;AppComponent </title>
<path fill="none" stroke="black" stroke-dasharray="1,5" d="M1288,-149.91C1288,-149.91 1288,-168.79 1288,-168.79"/>
<polygon fill="black" stroke="black" points="1284.5,-168.79 1288,-178.79 1291.5,-168.79 1284.5,-168.79"/>
</g>
<!-- AppRoutingModule -->
<g id="node16" class="node">
<title>AppRoutingModule</title>
<polygon fill="#8dd3c7" stroke="black" points="2366.27,-84.8 2363.27,-88.8 2342.27,-88.8 2339.27,-84.8 2237.73,-84.8 2237.73,-48.8 2366.27,-48.8 2366.27,-84.8"/>
<text text-anchor="middle" x="2302" y="-62.6" font-family="Times,serif" font-size="14.00">AppRoutingModule</text>
</g>
<!-- AppRoutingModule&#45;&gt;AppModule -->
<g id="edge15" class="edge">
<title>AppRoutingModule&#45;&gt;AppModule</title>
<path fill="none" stroke="black" d="M2302,-85.12C2302,-108.46 2302,-145.8 2302,-145.8 2302,-145.8 1339.96,-145.8 1339.96,-145.8"/>
<polygon fill="black" stroke="black" points="1339.96,-142.3 1329.96,-145.8 1339.96,-149.3 1339.96,-142.3"/>
</g>
</g>
</svg>
